<?xml version="1.0" encoding="UTF-8"?>
<svg id="Capa_1" data-name="Capa 1" xmlns="http://www.w3.org/2000/svg" viewBox="0 0 1080 1080">
  <g>
    <path d="M460.48,677.5c-1.27,0-2.48-.15-3.61-.45-1.13-.3-2.01-.57-2.64-.81v-1.52c.37.17.86.39,1.49.66.62.27,1.32.5,2.07.7.75.19,1.49.29,2.2.29,1.42,0,2.57-.37,3.45-1.12.87-.74,1.31-1.8,1.31-3.15,0-.84-.25-1.56-.74-2.17s-1.14-1.15-1.92-1.65c-.79-.5-1.62-.98-2.51-1.44-.88-.46-1.72-.97-2.51-1.52-.79-.55-1.43-1.2-1.93-1.94s-.74-1.62-.74-2.64c0-.84.23-1.68.68-2.51s1.18-1.53,2.17-2.09c.99-.56,2.3-.84,3.92-.84.88,0,1.84.11,2.88.32,1.04.22,1.93.44,2.69.68l-.32,2.2c-1.25-.54-2.49-.99-3.72-1.34s-2.48-.53-3.75-.53c-.63.3-1.06.7-1.31,1.18s-.37,1.02-.37,1.6c0,.86.26,1.62.78,2.28.52.66,1.19,1.26,2.02,1.81s1.7,1.08,2.62,1.6c.92.52,1.79,1.08,2.62,1.68.83.6,1.5,1.28,2.02,2.04.52.76.78,1.64.78,2.65,0,1.12-.28,2.14-.84,3.06-.56.92-1.4,1.64-2.52,2.17s-2.54.79-4.24.79Z"/>
    <path d="M476.98,659.61c-.47,0-.87-.17-1.18-.52-.31-.34-.47-.73-.47-1.17,0-.47.16-.87.47-1.2s.71-.49,1.18-.49.85.16,1.18.49c.33.32.5.72.5,1.2,0,.43-.17.82-.5,1.17-.33.35-.73.52-1.18.52ZM475.65,677.11v-14.63h2.69v14.63h-2.69Z"/>
    <path d="M486.59,677.11v-10.16c0-.75-.1-1.36-.31-1.83-.21-.46-.44-.83-.7-1.1-.26-.27-.48-.47-.65-.6l1.65-1.23,2.65,2.36c.8-.75,1.55-1.35,2.25-1.8.7-.44,1.53-.66,2.48-.66.5,0,1.04.13,1.63.39.59.26,1.11.74,1.54,1.44.43.7.65,1.72.65,3.06v10.13h-2.75v-9.8c0-1.01-.18-1.8-.53-2.35-.36-.55-1.01-.83-1.96-.83s-2,.6-3.2,1.81v11.16h-2.75Z"/>
    <path d="M510.79,677.5c-1.21,0-2.31-.28-3.3-.84-.99-.56-1.78-1.38-2.36-2.46-.58-1.08-.87-2.4-.87-3.95,0-1.66.31-3.1.92-4.32.61-1.22,1.46-2.16,2.52-2.83,1.07-.67,2.27-1,3.61-1,.71,0,1.44.1,2.18.31s1.3.38,1.67.53l-.32,2.14c-1.01-.54-1.95-.92-2.8-1.15-.85-.23-1.55-.34-2.09-.34-.82.41-1.46,1-1.92,1.78-.46.78-.79,1.58-.97,2.41-.18.83-.28,1.57-.28,2.22,0,1.1.23,2.08.68,2.94.45.86,1.06,1.54,1.81,2.04.75.5,1.58.74,2.49.74.75,0,1.42-.09,2.01-.26.58-.17,1.11-.38,1.59-.61v1.13c-.6.39-1.29.74-2.05,1.05s-1.6.47-2.51.47Z"/>
    <path d="M527.65,677.5c-1.34,0-2.54-.28-3.61-.84-1.07-.56-1.9-1.38-2.51-2.46-.6-1.08-.91-2.4-.91-3.95,0-1.79.34-3.29,1.04-4.5.69-1.21,1.6-2.12,2.72-2.73s2.32-.92,3.59-.92c1.01,0,1.94.26,2.77.79.83.53,1.5,1.32,2.01,2.36s.76,2.35.76,3.9h-10.32c0,1.68.26,3,.79,3.96.53.96,1.22,1.63,2.07,2.02.85.39,1.74.58,2.67.58.84,0,1.59-.09,2.23-.26.65-.17,1.24-.38,1.78-.61v1.13c-.67.39-1.43.74-2.3,1.05-.86.31-1.79.47-2.78.47ZM523.32,668.18h7.57c-.07-.97-.28-1.76-.63-2.36-.36-.6-.78-1.06-1.26-1.38-.49-.31-.97-.53-1.46-.65-.49-.12-.89-.18-1.21-.18-.73.35-1.38.92-1.92,1.73-.55.81-.91,1.75-1.08,2.83Z"/>
    <path d="M551.34,677.11v-1.55c.97-.6,2-1.36,3.09-2.28,1.09-.92,2.1-1.91,3.04-2.99s1.7-2.16,2.3-3.25c.59-1.09.89-2.12.89-3.09,0-.82-.21-1.56-.62-2.23-.41-.67-1.09-1.19-2.04-1.55-.69,0-1.52.08-2.48.24-.96.16-1.89.38-2.8.66l-.65-2.04c.32-.11.76-.21,1.31-.31.55-.1,1.13-.18,1.73-.26.6-.08,1.13-.11,1.59-.11,1.77,0,3.14.27,4.11.83.97.55,1.66,1.25,2.05,2.1.4.85.6,1.73.6,2.64,0,.71-.21,1.48-.63,2.31-.42.83-.98,1.68-1.68,2.54-.7.86-1.47,1.7-2.31,2.51-.84.81-1.68,1.55-2.51,2.23-.83.68-1.59,1.26-2.28,1.73v.19l9.84-.49v2.17h-12.55Z"/>
    <path d="M576.35,677.5c-1.21,0-2.31-.35-3.32-1.05-1-.7-1.8-1.73-2.38-3.09-.58-1.36-.87-3.01-.87-4.95s.25-3.49.74-4.77c.5-1.28,1.14-2.3,1.92-3.06.79-.75,1.63-1.3,2.54-1.63.91-.33,1.78-.5,2.62-.5,1.23,0,2.34.33,3.33,1,.99.67,1.79,1.67,2.38,2.99.59,1.33.89,2.97.89,4.93s-.25,3.5-.74,4.79c-.5,1.29-1.14,2.34-1.93,3.12s-1.64,1.35-2.56,1.7c-.92.34-1.8.52-2.64.52ZM576.9,675.98c1.42,0,2.5-.68,3.22-2.04.72-1.36,1.08-3.35,1.08-5.99,0-1.49-.19-2.83-.58-4.01s-.91-2.12-1.55-2.82c-.65-.69-1.37-1.04-2.17-1.04-1.38,0-2.44.7-3.17,2.09-.73,1.39-1.1,3.32-1.1,5.78,0,1.47.19,2.81.58,4.03.39,1.22.91,2.19,1.55,2.91.65.72,1.36,1.08,2.14,1.08Z"/>
    <path d="M590.66,677.11v-2.04l4.59.32v-14.14l-4.34,2.23-1.1-1.88,8.06-3.27h.13v17.05l4.6-.32v2.04h-11.94Z"/>
    <path d="M613.89,680.61l-2.59-1.07,8.77-19.03-10.65.58-.32-2.17h13.2v1.49l-8.41,20.19Z"/>
  </g>
  <g>
    <path d="M108.03,655.2c-1.71,0-3.68-.16-5.89-.47-2.22-.31-4.14-.7-5.78-1.17l1.17-9.1c1.4.93,3.07,1.79,5.02,2.57,1.95.78,3.95,1.42,6.01,1.93,2.06.5,3.87.76,5.43.76,1.79-1.09,3.39-2.92,4.79-5.49,1.4-2.57,2.53-5.6,3.38-9.1.86-3.5,1.28-7.12,1.28-10.85v-72.48h11.56v72.48c0,5.68-1.21,10.85-3.62,15.52-2.41,4.67-5.64,8.4-9.69,11.2-4.05,2.8-8.6,4.2-13.66,4.2Z"/>
    <path d="M190.2,630.46c-5.76,0-10.47-.8-14.12-2.39-3.66-1.59-6.52-3.62-8.58-6.07-2.06-2.45-3.52-5.06-4.38-7.82-.86-2.76-1.38-5.35-1.58-7.76-.2-2.41-.29-4.32-.29-5.72v-48.91h11.91v49.84c0,1.48.06,3.25.18,5.31.12,2.06.49,4.14,1.11,6.24.62,2.1,1.65,4.09,3.09,5.95,1.44,1.87,3.44,3.37,6.01,4.49,2.57,1.13,5.87,1.69,9.92,1.69,6.69,0,12-1.79,15.93-5.37,3.93-3.58,5.89-9.57,5.89-17.97v-50.19h5.14v47.39c0,1.87-.1,4.12-.29,6.77-.2,2.65-.74,5.39-1.63,8.23-.9,2.84-2.41,5.51-4.55,7.99-2.14,2.49-5.12,4.49-8.93,6.01-3.81,1.52-8.75,2.28-14.82,2.28Z"/>
    <path d="M237.35,629.06l34.67-79.14h1.75l34.67,79.14h-12.72l-8.75-21.01h-34.67l-8.64,21.01h-6.3ZM254.04,603.61h31.05l-15.41-37.82-15.64,37.82Z"/>
    <path d="M383.83,630.34l-51.12-63.96h-.47v62.68h-5.14v-77.27h8.64l44.47,56.14h.47v-56.14h5.14v78.55h-1.98Z"/>
    <path d="M450.01,629.06v-77.27h22.06c5.68,0,10.72.64,15.12,1.93,4.39,1.28,7.86,3.25,10.39,5.89,2.53,2.65,3.79,6.11,3.79,10.39s-1.52,8.01-4.55,11.2c-3.04,3.19-7.2,5.56-12.49,7.12,7.39,1.4,12.82,3.87,16.28,7.41,3.46,3.54,5.19,7.41,5.19,11.61,0,3.97-1.03,7.35-3.09,10.15-2.06,2.8-4.73,5.04-7.99,6.71-3.27,1.67-6.71,2.9-10.33,3.68-3.62.78-6.98,1.17-10.1,1.17h-24.28ZM461.33,587.15h8.4c5.14,0,9.14-.8,12.02-2.39,2.88-1.59,4.9-3.68,6.07-6.24,1.17-2.57,1.75-5.21,1.75-7.94,0-2.96-1.01-5.78-3.04-8.46-2.02-2.68-5.37-4.73-10.04-6.13-2.18,0-4.75.23-7.7.7-2.96.47-5.45,1.01-7.47,1.63v28.83ZM471.95,624.97c3.58,0,6.96-.6,10.15-1.81,3.19-1.21,5.78-3.05,7.76-5.54,1.98-2.49,2.98-5.6,2.98-9.34,0-3.27-1.01-6.24-3.04-8.93-2.02-2.68-4.75-4.82-8.17-6.42-3.42-1.59-7.24-2.39-11.44-2.39h-8.87v33.26c1.09.31,2.66.58,4.73.82,2.06.23,4.03.35,5.89.35Z"/>
    <path d="M532.18,629.06v-77.27h46.8l-1.17,7.82-21.71-3.62c-2.26,0-4.36.18-6.3.53-1.95.35-4.05.84-6.3,1.46v28.36h25.91v4.44h-25.91v34.08l36.18-3.62-1.17,7.82h-46.34Z"/>
    <path d="M640.38,630.46c-5.6,0-10.97-.76-16.11-2.28-5.14-1.52-9.71-3.85-13.71-7-4.01-3.15-7.18-7.1-9.51-11.85-2.33-4.75-3.5-10.35-3.5-16.81,0-7.47,1.34-13.87,4.03-19.2,2.68-5.33,6.24-9.69,10.68-13.07,4.44-3.39,9.3-5.87,14.59-7.47,5.29-1.59,10.5-2.39,15.64-2.39,2.41,0,4.94.2,7.59.58,2.64.39,5.09.86,7.35,1.4,2.26.55,4.01,1.05,5.25,1.52l-1.17,7.94c-4.2-1.79-8.35-3.34-12.43-4.67-4.09-1.32-8.66-1.98-13.71-1.98-8.25,1.87-14.55,5.93-18.91,12.2-4.36,6.26-6.54,14.03-6.54,23.29,0,7.78,1.42,14.34,4.26,19.67,2.84,5.33,6.71,9.34,11.61,12.02,4.9,2.68,10.5,4.03,16.81,4.03,4.12,0,8.21-.53,12.26-1.58,4.04-1.05,7.27-2.63,9.69-4.73v6.42c-2.33.93-4.94,1.69-7.82,2.28-2.88.58-5.74,1.01-8.58,1.28-2.84.27-5.43.41-7.76.41Z"/>
    <path d="M685.55,629.06v-77.27h46.8l-1.17,7.82-21.71-3.62c-2.26,0-4.36.18-6.3.53-1.95.35-4.05.84-6.3,1.46v28.36h25.91v4.44h-25.91v34.08l36.18-3.62-1.17,7.82h-46.34Z"/>
    <path d="M805.65,630.69l-27.08-38.52h-8.99v36.88h-11.44v-77.27h25.21c5.06,0,9.61.76,13.66,2.28,4.05,1.52,7.26,3.74,9.63,6.65,2.37,2.92,3.56,6.52,3.56,10.8,0,5.53-2.1,9.9-6.3,13.13-4.2,3.23-9.53,5.43-15.99,6.59l31.28,37.82-13.54,1.63ZM769.59,588.67h7.47c5.68,0,10.02-.82,13.01-2.45,2.99-1.63,5.08-3.72,6.24-6.24,1.17-2.53,1.75-5.15,1.75-7.88,0-.39-.1-1.26-.29-2.63-.19-1.36-.68-2.92-1.46-4.67-.78-1.75-2.04-3.42-3.79-5.02-1.75-1.59-4.18-2.82-7.29-3.68-2.26,0-4.92.2-7.99.58-3.07.39-5.62.86-7.64,1.4v30.58Z"/>
    <path d="M887.12,630.69l-27.08-38.52h-8.99v36.88h-11.44v-77.27h25.21c5.06,0,9.61.76,13.66,2.28,4.05,1.52,7.26,3.74,9.63,6.65,2.37,2.92,3.56,6.52,3.56,10.8,0,5.53-2.1,9.9-6.3,13.13-4.2,3.23-9.53,5.43-15.99,6.59l31.28,37.82-13.54,1.63ZM851.05,588.67h7.47c5.68,0,10.02-.82,13.01-2.45,2.99-1.63,5.08-3.72,6.24-6.24,1.17-2.53,1.75-5.15,1.75-7.88,0-.39-.1-1.26-.29-2.63-.19-1.36-.68-2.92-1.46-4.67-.78-1.75-2.04-3.42-3.79-5.02-1.75-1.59-4.18-2.82-7.29-3.68-2.26,0-4.92.2-7.99.58-3.07.39-5.62.86-7.64,1.4v30.58Z"/>
    <path d="M911.75,629.06l34.67-79.14h1.75l34.67,79.14h-12.72l-8.75-21.01h-34.67l-8.64,21.01h-6.3ZM928.44,603.61h31.05l-15.41-37.82-15.64,37.82Z"/>
  </g>
  <g>
    <path d="M531.06,265.91c8.15-1.6,18.83,4.44,21.65,11.58,4.65,11.78,2.84,20.34-6.26,28.95-2.16,2.05-4.25,3.66-2.08,7.16.53.86-1.01,4.37-2.03,4.58-4.41.92-8.97,1.15-13.49,1.46-1.08.07-2.21-.51-3.11-.74.36,13.15,5.52,24.17,13.35,34.15,9.05,11.54,20.25,19.32,35.03,21.85,16.11,2.75,25.51,13.51,30.32,28.24,2.72,8.34,4.72,17.17,5.31,25.9,1.31,19.26,4.11,38.15,9.17,56.79,2.07,7.63,2.52,15.66,7.13,22.57,1.72,2.58.55,4.82-2.92,5.42-7.07,1.23-9.82-.37-11-7.32-1.12-6.58-3.93-12.22-8.07-17.34-5.32-6.58-8.59-14.81-16.07-19.66-.92-.6-1.64-1.87-1.96-2.97-3.04-10.34-12.05-14.91-19.9-20.53-3.13-2.25-6.68-2.41-10.15-.29-.89.54-1.89,1.11-2.89,1.21-7.82.8-15.64,1.5-24.09,2.28,3.22-12.13,5.78-24.74,3.25-37.84-.14.46-.44.94-.41,1.39,1.24,17.41-3.6,33.64-10,49.45-3.22,7.95-4.26,15.81-2.48,24.2.39,1.83-.63,3.95-.98,5.94-.39,2.2-1.39,4.52-1.02,6.59.69,3.83,1.92,8.23-1.88,10.23-4.03,2.12-8.97,3.21-13.56,3.32-3.08.07-2.08-3.45-1.84-5.85,1.22-12.37,2.84-24.73,3.24-37.13.31-9.58-3.48-18.27-10.11-25.34-2.46-2.62-5.69-4.52-8.57-6.76-.33.35-.65.71-.98,1.06.63.62,1.23,1.29,1.9,1.85.69.58,1.48,1.03,2.19,1.59,7.18,5.78,11.29,12.3,8.15,22.27-3.09,9.83-5.6,19.88-4.73,30.52.31,3.85-.51,8.47-2.56,11.59-1.49,2.28-5.81,3.57-8.93,3.67-2.91.09-6.05-1.69-8.7-3.28-.58-.35-.21-4.12.85-5.09,11.48-10.61,11.65-23.78,7.55-37.1-4.13-13.41-9.88-26.32-14.77-39.5-2.55-6.88-5.2-13.78-7.09-20.86-3.43-12.85-1.05-25.36,3.63-37.48,1.28-3.31,3.74-6.15,5.17-9.41,2.88-6.58,2.84-13.36.93-20.27-1.62-5.85-2.87-11.81-4.31-17.8-2.91-.26-6.87-.03-10.46-1.06-6.85-1.98-7.54-5.29-2.82-10.72.58-.66,1.12-1.35,2.11-2.54-9.22-5.47-15.64-12.45-11.68-23.89,3.22-9.33,11.03-13.49,19.32-16.9.28.29.56.58.83.87-.94,1.05-1.97,2.03-2.81,3.15-2.34,3.1-5.09,6.01-6.8,9.43-3.04,6.08-1.59,11.04,3.59,15.13,5.12,4.04,10.37,4.35,15.51-.06,5.35-4.59,11.29-6.51,18.17-6.49,7.21.02,14.43-.26,21.64-.26,5.9,0,10.74,2.41,14.52,6.97,4.94,5.96,7.85,7.22,11.96,5.27,5.3-2.51,9.79-10.46,7.71-15.83-1.77-4.57-5.14-8.56-8.05-12.63-.99-1.39-2.74-2.25-4.64-3.74Z"/>
    <path d="M590.25,514.47c-2.93-11.14-6.24-22.19-9.04-33.36-.95-3.81-1.82-8.14-.92-11.79,1.07-4.35.58-6.96-3.11-9.45-2.93-1.97-5.4-4.63-8.18-6.86-2.13-1.7-4.14-3.86-6.7-4.93-2.37-.99-6.01,1.32-8.41,1.77-4.74.88-9.86.99-14.67.86-.45-.01-.93-.02-1.31.23-1.5.99,2.03,3.88,2.64,4.63,1.89,2.29,4.37,5.63,7.44,6.34-.17.1-.33.2-.51.31,6.26,8.32,11.98,15.86,17.63,23.45,6.85,9.2,10.89,19.09,8.01,30.89-1.11,4.56,1.06,6.75,5.78,6.27,2.28-.23,4.49-1.03,6.76-1.43,4.03-.7,5.53-3.22,4.56-6.92Z"/>
  </g>
</svg>